<mxfile host="app.diagrams.net" modified="2023-12-25T18:42:27.884Z" agent="Mozilla/5.0 (Windows NT 10.0; Win64; x64) AppleWebKit/537.36 (KHTML, like Gecko) Chrome/120.0.0.0 Safari/537.36" version="22.1.11" etag="qOCUlQ1SVDHsqGUKV_WZ" type="github">
  <diagram name="PÃ¡gina-1" id="UV5B30JB2ptnzW7TbZCq">
    <mxGraphModel>
      <root>
        <mxCell id="0" />
        <mxCell id="1" parent="0" />
      </root>
    </mxGraphModel>
  </diagram>
</mxfile>
